<svg xmlns="http://www.w3.org/2000/svg" xmlns:xlink="http://www.w3.org/1999/xlink" width="500" zoomAndPan="magnify" viewBox="0 0 375 374.999991" height="500" preserveAspectRatio="xMidYMid meet" version="1.0"><defs><g/><clipPath id="1d0f9f16c5"><path d="M 259.464844 155.640625 L 272.519531 155.640625 L 272.519531 181.992188 L 259.464844 181.992188 Z M 259.464844 155.640625 " clip-rule="nonzero"/></clipPath><clipPath id="688a36757f"><path d="M 183.039062 239.597656 L 192 239.597656 L 192 248.542969 L 183.039062 248.542969 Z M 183.039062 239.597656 " clip-rule="nonzero"/></clipPath><clipPath id="3641828729"><rect x="0" width="249" y="0" height="35"/></clipPath></defs><path fill="#0b3266" d="M 141.019531 225.945312 C 141.078125 226.015625 136.375 221.035156 133.945312 214.804688 C 131.328125 208.652344 130.980469 201.246094 135.386719 198.300781 C 134.691406 198.800781 146.390625 216.351562 141.019531 225.945312 " fill-opacity="1" fill-rule="nonzero"/><path fill="#0b3266" d="M 125.183594 205.382812 C 125.21875 205.457031 122.582031 199.828125 122.144531 193.527344 C 121.542969 187.257812 123.144531 180.316406 127.933594 178.425781 C 127.273438 178.707031 133.132812 197.542969 125.183594 205.382812 " fill-opacity="1" fill-rule="nonzero"/><path fill="#0b3266" d="M 116.457031 181.589844 C 116.476562 181.660156 115.652344 175.9375 116.890625 170.054688 C 117.992188 164.160156 121.15625 158.105469 126 157.273438 C 125.382812 157.375 125.933594 175.992188 116.457031 181.589844 " fill-opacity="1" fill-rule="nonzero"/><path fill="#0b3266" d="M 114.84375 156.4375 C 114.125 156.316406 119.734375 135.660156 129.707031 136.21875 C 129.136719 136.167969 124.929688 153.269531 114.84375 156.4375 " fill-opacity="1" fill-rule="nonzero"/><path fill="#0b3266" d="M 120.339844 131.792969 C 119.726562 131.527344 130.226562 114.285156 139.171875 116.671875 C 138.652344 116.5 130.261719 131 120.339844 131.792969 " fill-opacity="1" fill-rule="nonzero"/><path fill="#0b3266" d="M 132.949219 109.53125 C 132.429688 109.171875 146.941406 96.273438 154.511719 100.082031 C 154.042969 99.816406 142.054688 110.851562 132.949219 109.53125 " fill-opacity="1" fill-rule="nonzero"/><path fill="#0b3266" d="M 152.667969 91.523438 C 152.234375 91.105469 169.898438 83.175781 175.847656 87.933594 C 175.429688 87.605469 160.457031 94.546875 152.667969 91.523438 " fill-opacity="1" fill-rule="nonzero"/><path fill="#0b3266" d="M 140.15625 226.554688 C 140.152344 226.503906 134.839844 222.324219 129.070312 217.421875 C 123.148438 212.648438 116.765625 207.152344 111.054688 207.316406 C 111.050781 207.210938 114.035156 213.613281 119.777344 218.914062 C 125.335938 224.3125 133.648438 228.609375 140.15625 226.554688 " fill-opacity="1" fill-rule="nonzero"/><path fill="#0b3266" d="M 124.164062 205.792969 C 124.175781 205.75 120.761719 200.710938 116.925781 194.992188 C 112.953125 189.347656 108.5625 183.015625 103.304688 182.074219 C 103.316406 181.984375 104.410156 188.445312 108.097656 194.503906 C 111.625 200.613281 117.746094 206.320312 124.164062 205.792969 " fill-opacity="1" fill-rule="nonzero"/><path fill="#0b3266" d="M 115.351562 181.765625 C 114.5625 181.890625 110.835938 159.808594 102.535156 155.90625 C 102.558594 155.828125 101.996094 161.902344 103.773438 168.171875 C 105.417969 174.445312 109.410156 180.917969 115.351562 181.765625 " fill-opacity="1" fill-rule="nonzero"/><path fill="#0b3266" d="M 113.722656 156.371094 C 113.023438 156.296875 115.261719 135.542969 108.632812 130.511719 C 107.941406 130.234375 102.65625 152.226562 113.722656 156.371094 " fill-opacity="1" fill-rule="nonzero"/><path fill="#0b3266" d="M 119.273438 131.484375 C 118.664062 131.269531 126.164062 113.234375 121.472656 107.5625 C 120.902344 107.175781 110.390625 125.535156 119.273438 131.484375 " fill-opacity="1" fill-rule="nonzero"/><path fill="#0b3266" d="M 132.003906 109.007812 C 131.476562 108.683594 143.519531 94.480469 140.945312 88.683594 C 140.480469 88.238281 125.660156 101.996094 132.003906 109.007812 " fill-opacity="1" fill-rule="nonzero"/><path fill="#0b3266" d="M 151.917969 90.824219 C 151.464844 90.433594 167.3125 80.871094 166.925781 75.46875 C 166.554688 74.996094 148.324219 83.527344 151.917969 90.824219 " fill-opacity="1" fill-rule="nonzero"/><path fill="#0b3266" d="M 168.953125 244.78125 C 95.007812 215.988281 95.367188 111.339844 168.585938 82.710938 C 95.636719 111.847656 96.511719 215.800781 169.75 243.714844 C 170.835938 244.128906 171.566406 244.691406 171.363281 244.992188 C 171.164062 245.292969 170.089844 245.21875 168.988281 244.796875 C 168.980469 244.792969 168.960938 244.785156 168.953125 244.78125 " fill-opacity="1" fill-rule="nonzero"/><path fill="#0b3266" d="M 233.972656 225.945312 C 233.914062 226.015625 238.617188 221.035156 241.046875 214.804688 C 243.664062 208.652344 244.011719 201.246094 239.605469 198.300781 C 240.300781 198.800781 228.601562 216.351562 233.972656 225.945312 " fill-opacity="1" fill-rule="nonzero"/><path fill="#0b3266" d="M 249.808594 205.382812 C 249.773438 205.457031 252.410156 199.828125 252.847656 193.527344 C 253.449219 187.257812 251.847656 180.316406 247.058594 178.425781 C 247.71875 178.707031 241.859375 197.542969 249.808594 205.382812 " fill-opacity="1" fill-rule="nonzero"/><path fill="#0b3266" d="M 258.535156 181.589844 C 258.515625 181.660156 259.339844 175.9375 258.101562 170.054688 C 257 164.160156 253.835938 158.105469 248.992188 157.273438 C 249.609375 157.375 249.058594 175.992188 258.535156 181.589844 " fill-opacity="1" fill-rule="nonzero"/><path fill="#0b3266" d="M 260.148438 156.4375 C 260.867188 156.316406 255.257812 135.660156 245.285156 136.21875 C 245.855469 136.167969 250.0625 153.269531 260.148438 156.4375 " fill-opacity="1" fill-rule="nonzero"/><path fill="#0b3266" d="M 254.652344 131.792969 C 255.269531 131.527344 244.765625 114.285156 235.820312 116.671875 C 236.339844 116.5 244.734375 131 254.652344 131.792969 " fill-opacity="1" fill-rule="nonzero"/><path fill="#0b3266" d="M 242.046875 109.53125 C 242.5625 109.171875 228.050781 96.273438 220.480469 100.082031 C 220.949219 99.816406 232.9375 110.851562 242.046875 109.53125 " fill-opacity="1" fill-rule="nonzero"/><path fill="#0b3266" d="M 222.324219 91.523438 C 222.761719 91.105469 205.097656 83.175781 199.144531 87.933594 C 199.5625 87.605469 214.535156 94.546875 222.324219 91.523438 " fill-opacity="1" fill-rule="nonzero"/><path fill="#0b3266" d="M 234.835938 226.554688 C 234.839844 226.503906 240.152344 222.324219 245.921875 217.421875 C 251.84375 212.648438 258.226562 207.152344 263.9375 207.316406 C 263.941406 207.210938 260.957031 213.613281 255.214844 218.914062 C 249.65625 224.3125 241.34375 228.609375 234.835938 226.554688 " fill-opacity="1" fill-rule="nonzero"/><path fill="#0b3266" d="M 250.828125 205.792969 C 250.816406 205.75 254.234375 200.710938 258.066406 194.992188 C 262.042969 189.347656 266.429688 183.015625 271.6875 182.074219 C 271.675781 181.984375 270.582031 188.445312 266.894531 194.503906 C 263.367188 200.613281 257.246094 206.320312 250.828125 205.792969 " fill-opacity="1" fill-rule="nonzero"/><g clip-path="url(#1d0f9f16c5)"><path fill="#0b3266" d="M 259.640625 181.765625 C 260.429688 181.890625 264.15625 159.808594 272.457031 155.90625 C 272.433594 155.828125 272.996094 161.902344 271.21875 168.171875 C 269.574219 174.445312 265.582031 180.917969 259.640625 181.765625 " fill-opacity="1" fill-rule="nonzero"/></g><path fill="#0b3266" d="M 261.269531 156.371094 C 261.96875 156.296875 259.730469 135.542969 266.359375 130.511719 C 267.050781 130.234375 272.335938 152.226562 261.269531 156.371094 " fill-opacity="1" fill-rule="nonzero"/><path fill="#0b3266" d="M 255.71875 131.484375 C 256.332031 131.269531 248.828125 113.234375 253.519531 107.5625 C 254.089844 107.175781 264.601562 125.535156 255.71875 131.484375 " fill-opacity="1" fill-rule="nonzero"/><path fill="#0b3266" d="M 242.988281 109.007812 C 243.515625 108.683594 231.472656 94.480469 234.046875 88.683594 C 234.515625 88.238281 249.332031 101.996094 242.988281 109.007812 " fill-opacity="1" fill-rule="nonzero"/><path fill="#0b3266" d="M 223.078125 90.824219 C 223.527344 90.433594 207.679688 80.871094 208.066406 75.46875 C 208.441406 74.996094 226.667969 83.527344 223.078125 90.824219 " fill-opacity="1" fill-rule="nonzero"/><path fill="#0b3266" d="M 206.039062 244.78125 C 279.984375 215.988281 279.625 111.339844 206.40625 82.710938 C 279.355469 111.847656 278.480469 215.800781 205.242188 243.714844 C 204.15625 244.128906 203.425781 244.691406 203.628906 244.992188 C 203.828125 245.292969 204.902344 245.21875 206.003906 244.796875 C 206.011719 244.792969 206.03125 244.785156 206.039062 244.78125 " fill-opacity="1" fill-rule="nonzero"/><g clip-path="url(#688a36757f)"><path fill="#0b3266" d="M 191.90625 244.132812 C 191.90625 246.570312 189.929688 248.542969 187.496094 248.542969 C 185.0625 248.542969 183.085938 246.570312 183.085938 244.132812 C 183.085938 241.699219 185.0625 239.726562 187.496094 239.726562 C 189.929688 239.726562 191.90625 241.699219 191.90625 244.132812 " fill-opacity="1" fill-rule="nonzero"/></g><path fill="#0b3266" d="M 204.777344 180.480469 L 213.414062 160.460938 L 222.046875 180.480469 Z M 170.214844 180.480469 L 152.945312 180.480469 L 161.582031 160.460938 Z M 214.703125 161.347656 C 216.015625 162.175781 217.164062 160.964844 216.375 159.449219 C 215.511719 157.792969 213.308594 158.585938 213.308594 158.585938 C 203.992188 153.984375 200.8125 155.628906 195.554688 156.449219 C 192.578125 156.914062 190.566406 155.90625 189.382812 154.941406 C 188.9375 154.253906 188.796875 153.304688 189.285156 151.992188 C 190.5625 148.546875 187.382812 144.945312 187.382812 144.945312 C 187.382812 144.945312 184.203125 148.546875 185.480469 151.992188 C 185.96875 153.304688 185.828125 154.253906 185.382812 154.941406 C 184.199219 155.90625 182.1875 156.914062 179.210938 156.449219 C 173.949219 155.628906 170.773438 153.984375 161.457031 158.585938 C 161.457031 158.585938 159.253906 157.792969 158.390625 159.449219 C 157.535156 161.09375 158.957031 162.386719 160.398438 161.09375 L 152.035156 180.480469 L 151.660156 180.480469 C 151.90625 181.875 152.636719 186.15625 162.101562 185.875 C 171.5 185.597656 171.5 180.480469 171.5 180.480469 L 171.125 180.480469 L 162.199219 159.785156 C 162.25 159.773438 162.292969 159.757812 162.347656 159.75 C 163.691406 159.585938 168.226562 156.527344 173.292969 157.558594 C 178.359375 158.585938 178.335938 160.09375 181.238281 159.492188 C 182.097656 159.3125 182.789062 159.21875 183.390625 159.203125 C 184.539062 160.609375 185.886719 162.40625 185.742188 164.054688 C 185.457031 167.289062 182.742188 175.902344 183.835938 177.574219 C 184.066406 177.925781 184.265625 178.195312 184.445312 178.433594 C 185.160156 177.605469 186.203125 177.070312 187.382812 177.070312 C 188.5625 177.070312 189.605469 177.605469 190.320312 178.433594 C 190.5 178.195312 190.699219 177.925781 190.929688 177.574219 C 192.023438 175.902344 189.308594 167.289062 189.023438 164.054688 C 188.875 162.40625 190.226562 160.609375 191.375 159.203125 C 191.976562 159.21875 192.667969 159.3125 193.527344 159.492188 C 196.429688 160.09375 196.402344 158.585938 201.472656 157.558594 C 206.539062 156.527344 211.074219 159.585938 212.414062 159.75 C 212.546875 159.765625 212.660156 159.800781 212.773438 159.832031 L 203.867188 180.480469 L 203.492188 180.480469 C 203.734375 181.875 204.46875 186.15625 213.933594 185.875 C 223.332031 185.597656 223.332031 180.480469 223.332031 180.480469 L 222.957031 180.480469 L 214.703125 161.347656 " fill-opacity="1" fill-rule="nonzero"/><path fill="#0b3266" d="M 187.382812 177.785156 C 185.625 177.785156 184.199219 179.210938 184.199219 180.96875 C 184.199219 182.726562 185.625 184.152344 187.382812 184.152344 C 189.140625 184.152344 190.566406 182.726562 190.566406 180.96875 C 190.566406 179.210938 189.140625 177.785156 187.382812 177.785156 " fill-opacity="1" fill-rule="nonzero"/><path fill="#0b3266" d="M 227.515625 194.410156 C 225.503906 198.3125 222.570312 202.003906 218.957031 205.332031 L 205.226562 205.332031 C 205.1875 204.414062 204.4375 203.679688 203.511719 203.679688 L 200.011719 203.679688 C 200.011719 202.523438 199.078125 201.589844 197.921875 201.589844 L 191.292969 201.589844 C 191.292969 201.589844 190.667969 201.015625 189.257812 197.414062 C 187.867188 193.855469 191.335938 185.488281 190.332031 183.488281 C 189.617188 184.324219 188.570312 184.867188 187.382812 184.867188 C 186.195312 184.867188 185.148438 184.324219 184.433594 183.488281 C 183.425781 185.488281 186.898438 193.855469 185.507812 197.414062 C 184.097656 201.015625 183.472656 201.589844 183.472656 201.589844 L 176.839844 201.589844 C 175.6875 201.589844 174.753906 202.523438 174.753906 203.679688 L 171.304688 203.679688 C 170.363281 203.679688 169.605469 204.410156 169.542969 205.332031 L 156.019531 205.332031 C 154.980469 204.375 153.976562 203.355469 153.023438 202.304688 L 152.609375 201.847656 C 151.136719 200.167969 149.835938 198.417969 148.738281 196.640625 C 147.96875 195.394531 147.28125 194.097656 146.699219 192.78125 L 146.511719 192.359375 C 145.375 189.699219 144.6875 186.988281 144.460938 184.308594 C 144.097656 179.945312 144.945312 175.613281 146.980469 171.425781 C 156.851562 151.132812 150.78125 140.765625 147.722656 137.253906 L 154.535156 123.363281 C 158.242188 124.621094 162.046875 125.253906 165.882812 125.253906 C 165.882812 125.253906 165.886719 125.253906 165.886719 125.253906 C 176.328125 125.253906 184.304688 120.628906 187.492188 118.441406 C 190.679688 120.628906 198.65625 125.253906 209.101562 125.253906 C 212.9375 125.253906 216.746094 124.621094 220.453125 123.363281 L 227.265625 137.253906 C 224.203125 140.765625 218.136719 151.132812 228.003906 171.425781 C 231.613281 178.851562 231.445312 186.796875 227.515625 194.410156 Z M 232.238281 169.367188 C 221.738281 147.777344 231.160156 139.914062 231.546875 139.605469 L 233.085938 138.433594 L 222.777344 117.414062 L 220.742188 118.238281 C 216.960938 119.769531 213.042969 120.546875 209.101562 120.546875 C 197.464844 120.546875 189.074219 113.769531 188.992188 113.707031 L 187.492188 112.460938 L 185.992188 113.707031 C 185.910156 113.773438 177.59375 120.546875 165.886719 120.546875 C 165.886719 120.546875 165.882812 120.546875 165.882812 120.546875 C 161.941406 120.546875 158.023438 119.769531 154.242188 118.238281 L 152.210938 117.414062 L 142.753906 136.695312 L 141.941406 138.40625 L 143.417969 139.585938 C 143.824219 139.914062 153.25 147.777344 142.75 169.367188 C 140.335938 174.324219 139.335938 179.484375 139.773438 184.699219 C 140.050781 188.050781 140.933594 191.414062 142.394531 194.699219 C 142.394531 194.699219 144.507812 198.746094 144.734375 199.113281 C 146.082031 201.296875 147.695312 203.433594 149.527344 205.460938 L 151.191406 207.296875 L 151.230469 207.253906 C 151.753906 207.777344 152.285156 208.292969 152.828125 208.789062 C 154.871094 210.679688 157.140625 212.476562 159.566406 214.132812 L 161.210938 215.242188 L 161.230469 215.226562 C 162.035156 215.746094 162.816406 216.222656 163.589844 216.671875 C 166.445312 218.328125 169.476562 219.804688 172.601562 221.058594 C 177.320312 222.953125 182.199219 224.328125 187.105469 225.144531 L 187.492188 225.210938 L 187.878906 225.144531 C 206.902344 221.976562 224.511719 210.492188 231.699219 196.570312 C 236.335938 187.585938 236.523438 178.175781 232.238281 169.367188 " fill-opacity="1" fill-rule="nonzero"/><g transform="matrix(1, 0, 0, 1, 65, 253)"><g clip-path="url(#3641828729)"><g fill="#0b3266" fill-opacity="1"><g transform="translate(0.921542, 22.302387)"><g><path d="M 4.90625 -4.484375 L 4.90625 -1.28125 L 7.171875 -0.96875 L 7.15625 0 L 0.625 0 L 0.515625 -0.609375 C 0.898438 -0.847656 1.410156 -1.097656 2.046875 -1.359375 L 2.046875 -11.296875 L 0.640625 -11.46875 L 0.65625 -12.4375 L 6.765625 -12.578125 C 8.222656 -12.578125 9.398438 -12.1875 10.296875 -11.40625 C 11.203125 -10.632812 11.65625 -9.660156 11.65625 -8.484375 C 11.65625 -7.359375 11.226562 -6.414062 10.375 -5.65625 C 9.519531 -4.90625 8.414062 -4.519531 7.0625 -4.5 Z M 4.90625 -10.828125 L 4.90625 -6.15625 C 5.414062 -6.050781 5.898438 -6 6.359375 -6 C 7.128906 -6 7.707031 -6.242188 8.09375 -6.734375 C 8.488281 -7.222656 8.6875 -7.816406 8.6875 -8.515625 C 8.6875 -9.054688 8.582031 -9.570312 8.375 -10.0625 C 8.175781 -10.5625 7.894531 -10.910156 7.53125 -11.109375 Z M 4.90625 -10.828125 "/></g></g></g><g fill="#0b3266" fill-opacity="1"><g transform="translate(16.428586, 22.302387)"><g><path d="M 13.75 -11.828125 C 13.28125 -11.546875 12.753906 -11.285156 12.171875 -11.046875 L 12.171875 -5.40625 C 12.148438 -3.382812 11.703125 -1.914062 10.828125 -1 C 9.953125 -0.09375 8.757812 0.359375 7.25 0.359375 C 5.53125 0.359375 4.164062 -0.148438 3.15625 -1.171875 C 2.144531 -2.203125 1.628906 -3.617188 1.609375 -5.421875 L 1.609375 -11.265625 L 0.15625 -11.46875 L 0.171875 -12.4375 L 5.953125 -12.4375 L 6.0625 -11.828125 C 5.59375 -11.546875 5.066406 -11.285156 4.484375 -11.046875 L 4.484375 -5 C 4.484375 -3.8125 4.753906 -2.90625 5.296875 -2.28125 C 5.835938 -1.664062 6.578125 -1.359375 7.515625 -1.359375 C 8.128906 -1.359375 8.675781 -1.507812 9.15625 -1.8125 C 9.78125 -2.394531 10.101562 -3.53125 10.125 -5.21875 L 10.125 -11.234375 L 8.515625 -11.46875 L 8.53125 -12.4375 L 13.640625 -12.4375 Z M 13.75 -11.828125 "/></g></g></g><g fill="#0b3266" fill-opacity="1"><g transform="translate(33.918789, 22.302387)"><g><path d="M 9.03125 -6.59375 C 9.988281 -6.414062 10.726562 -6.035156 11.25 -5.453125 C 11.769531 -4.878906 12.03125 -4.207031 12.03125 -3.4375 C 12.03125 -2.414062 11.59375 -1.597656 10.71875 -0.984375 C 9.84375 -0.367188 8.648438 -0.0390625 7.140625 0 L 0.609375 0 L 0.484375 -0.609375 C 0.847656 -0.847656 1.382812 -1.101562 2.09375 -1.375 L 2.09375 -11.296875 L 0.75 -11.46875 L 0.78125 -12.4375 C 2.613281 -12.53125 4.578125 -12.578125 6.671875 -12.578125 C 8.109375 -12.578125 9.257812 -12.28125 10.125 -11.6875 C 10.988281 -11.101562 11.421875 -10.335938 11.421875 -9.390625 C 11.421875 -8.753906 11.21875 -8.164062 10.8125 -7.625 C 10.40625 -7.082031 9.8125 -6.738281 9.03125 -6.59375 Z M 4.96875 -10.828125 L 4.96875 -7.109375 L 5.84375 -7.109375 C 6.726562 -7.109375 7.394531 -7.296875 7.84375 -7.671875 C 8.289062 -8.054688 8.515625 -8.53125 8.515625 -9.09375 C 8.515625 -9.539062 8.375 -9.960938 8.09375 -10.359375 C 7.8125 -10.753906 7.457031 -11.003906 7.03125 -11.109375 Z M 6.484375 -1.453125 L 6.796875 -1.4375 C 7.503906 -1.4375 8.046875 -1.632812 8.421875 -2.03125 C 8.796875 -2.4375 8.984375 -2.914062 8.984375 -3.46875 C 8.984375 -4.113281 8.753906 -4.671875 8.296875 -5.140625 C 7.835938 -5.609375 7.265625 -5.847656 6.578125 -5.859375 L 4.96875 -5.859375 L 4.96875 -1.609375 Z M 6.484375 -1.453125 "/></g></g></g><g fill="#0b3266" fill-opacity="1"><g transform="translate(50.105767, 22.302387)"><g><path d="M 11.125 -3.671875 C 11.125 -2.148438 11.039062 -0.925781 10.875 0 L 0.609375 0 L 0.484375 -0.609375 C 0.847656 -0.847656 1.382812 -1.101562 2.09375 -1.375 L 2.09375 -11.265625 L 0.640625 -11.46875 L 0.65625 -12.4375 L 6.4375 -12.4375 L 6.5625 -11.828125 C 6.09375 -11.546875 5.5625 -11.285156 4.96875 -11.046875 L 4.96875 -1.59375 L 8.75 -1.890625 L 9.484375 -4.5 L 11.125 -4.34375 Z M 11.125 -3.671875 "/></g></g></g><g fill="#0b3266" fill-opacity="1"><g transform="translate(64.932868, 22.302387)"><g><path d="M 6.703125 -0.96875 L 6.6875 0 L 0.609375 0 L 0.484375 -0.609375 C 0.847656 -0.847656 1.382812 -1.101562 2.09375 -1.375 L 2.09375 -11.265625 L 0.640625 -11.46875 L 0.65625 -12.4375 L 6.4375 -12.4375 L 6.5625 -11.828125 C 6.09375 -11.546875 5.5625 -11.285156 4.96875 -11.046875 L 4.96875 -1.203125 Z M 6.703125 -0.96875 "/></g></g></g><g fill="#0b3266" fill-opacity="1"><g transform="translate(75.718103, 22.302387)"><g><path d="M 10.765625 -1.359375 L 6.890625 0.296875 C 5.347656 0.347656 4.070312 0.0703125 3.0625 -0.53125 C 2.0625 -1.132812 1.332031 -1.921875 0.875 -2.890625 C 0.425781 -3.867188 0.203125 -4.925781 0.203125 -6.0625 C 0.203125 -7.21875 0.441406 -8.3125 0.921875 -9.34375 C 1.398438 -10.382812 2.117188 -11.222656 3.078125 -11.859375 C 4.035156 -12.492188 5.195312 -12.8125 6.5625 -12.8125 C 8.019531 -12.8125 9.316406 -12.414062 10.453125 -11.625 C 10.472656 -11.21875 10.441406 -10.671875 10.359375 -9.984375 C 10.285156 -9.304688 10.175781 -8.71875 10.03125 -8.21875 L 8.296875 -8.21875 L 7.84375 -10.578125 C 6.96875 -10.953125 6.015625 -11.140625 4.984375 -11.140625 C 4.367188 -10.679688 3.90625 -10.03125 3.59375 -9.1875 C 3.289062 -8.34375 3.140625 -7.453125 3.140625 -6.515625 C 3.140625 -5.015625 3.503906 -3.820312 4.234375 -2.9375 C 4.960938 -2.0625 5.953125 -1.644531 7.203125 -1.6875 L 10.3125 -2.703125 Z M 10.765625 -1.359375 "/></g></g></g><g fill="#0b3266" fill-opacity="1"><g transform="translate(90.28078, 22.302387)"><g/></g></g><g fill="#0b3266" fill-opacity="1"><g transform="translate(98.856206, 22.302387)"><g><path d="M 4.90625 -4.484375 L 4.90625 -1.28125 L 7.171875 -0.96875 L 7.15625 0 L 0.625 0 L 0.515625 -0.609375 C 0.898438 -0.847656 1.410156 -1.097656 2.046875 -1.359375 L 2.046875 -11.296875 L 0.640625 -11.46875 L 0.65625 -12.4375 L 6.765625 -12.578125 C 8.222656 -12.578125 9.398438 -12.1875 10.296875 -11.40625 C 11.203125 -10.632812 11.65625 -9.660156 11.65625 -8.484375 C 11.65625 -7.359375 11.226562 -6.414062 10.375 -5.65625 C 9.519531 -4.90625 8.414062 -4.519531 7.0625 -4.5 Z M 4.90625 -10.828125 L 4.90625 -6.15625 C 5.414062 -6.050781 5.898438 -6 6.359375 -6 C 7.128906 -6 7.707031 -6.242188 8.09375 -6.734375 C 8.488281 -7.222656 8.6875 -7.816406 8.6875 -8.515625 C 8.6875 -9.054688 8.582031 -9.570312 8.375 -10.0625 C 8.175781 -10.5625 7.894531 -10.910156 7.53125 -11.109375 Z M 4.90625 -10.828125 "/></g></g></g><g fill="#0b3266" fill-opacity="1"><g transform="translate(114.36325, 22.302387)"><g><path d="M 6.3125 -12.8125 C 8.113281 -12.8125 9.59375 -12.179688 10.75 -10.921875 C 11.90625 -9.671875 12.484375 -8.046875 12.484375 -6.046875 C 12.484375 -4.117188 11.921875 -2.566406 10.796875 -1.390625 C 9.671875 -0.210938 8.222656 0.375 6.453125 0.375 C 4.640625 0.375 3.15625 -0.222656 2 -1.421875 C 0.84375 -2.617188 0.265625 -4.191406 0.265625 -6.140625 C 0.265625 -8.109375 0.832031 -9.710938 1.96875 -10.953125 C 3.113281 -12.191406 4.5625 -12.8125 6.3125 -12.8125 Z M 4.6875 -10.875 C 4.269531 -10.53125 3.929688 -9.957031 3.671875 -9.15625 C 3.410156 -8.363281 3.28125 -7.472656 3.28125 -6.484375 C 3.28125 -4.953125 3.582031 -3.703125 4.1875 -2.734375 C 4.789062 -1.765625 5.65625 -1.28125 6.78125 -1.28125 C 7.070312 -1.28125 7.429688 -1.335938 7.859375 -1.453125 C 8.335938 -1.828125 8.71875 -2.425781 9 -3.25 C 9.289062 -4.070312 9.4375 -4.984375 9.4375 -5.984375 C 9.4375 -7.515625 9.128906 -8.753906 8.515625 -9.703125 C 7.898438 -10.660156 7.082031 -11.140625 6.0625 -11.140625 C 5.632812 -11.140625 5.175781 -11.050781 4.6875 -10.875 Z M 4.6875 -10.875 "/></g></g></g><g fill="#0b3266" fill-opacity="1"><g transform="translate(130.682444, 22.302387)"><g><path d="M 11.125 -3.671875 C 11.125 -2.148438 11.039062 -0.925781 10.875 0 L 0.609375 0 L 0.484375 -0.609375 C 0.847656 -0.847656 1.382812 -1.101562 2.09375 -1.375 L 2.09375 -11.265625 L 0.640625 -11.46875 L 0.65625 -12.4375 L 6.4375 -12.4375 L 6.5625 -11.828125 C 6.09375 -11.546875 5.5625 -11.285156 4.96875 -11.046875 L 4.96875 -1.59375 L 8.75 -1.890625 L 9.484375 -4.5 L 11.125 -4.34375 Z M 11.125 -3.671875 "/></g></g></g><g fill="#0b3266" fill-opacity="1"><g transform="translate(145.509545, 22.302387)"><g><path d="M 6.703125 -0.96875 L 6.6875 0 L 0.609375 0 L 0.484375 -0.609375 C 0.847656 -0.847656 1.382812 -1.101562 2.09375 -1.375 L 2.09375 -11.265625 L 0.640625 -11.46875 L 0.65625 -12.4375 L 6.4375 -12.4375 L 6.5625 -11.828125 C 6.09375 -11.546875 5.5625 -11.285156 4.96875 -11.046875 L 4.96875 -1.203125 Z M 6.703125 -0.96875 "/></g></g></g><g fill="#0b3266" fill-opacity="1"><g transform="translate(156.294781, 22.302387)"><g><path d="M 10.765625 -1.359375 L 6.890625 0.296875 C 5.347656 0.347656 4.070312 0.0703125 3.0625 -0.53125 C 2.0625 -1.132812 1.332031 -1.921875 0.875 -2.890625 C 0.425781 -3.867188 0.203125 -4.925781 0.203125 -6.0625 C 0.203125 -7.21875 0.441406 -8.3125 0.921875 -9.34375 C 1.398438 -10.382812 2.117188 -11.222656 3.078125 -11.859375 C 4.035156 -12.492188 5.195312 -12.8125 6.5625 -12.8125 C 8.019531 -12.8125 9.316406 -12.414062 10.453125 -11.625 C 10.472656 -11.21875 10.441406 -10.671875 10.359375 -9.984375 C 10.285156 -9.304688 10.175781 -8.71875 10.03125 -8.21875 L 8.296875 -8.21875 L 7.84375 -10.578125 C 6.96875 -10.953125 6.015625 -11.140625 4.984375 -11.140625 C 4.367188 -10.679688 3.90625 -10.03125 3.59375 -9.1875 C 3.289062 -8.34375 3.140625 -7.453125 3.140625 -6.515625 C 3.140625 -5.015625 3.503906 -3.820312 4.234375 -2.9375 C 4.960938 -2.0625 5.953125 -1.644531 7.203125 -1.6875 L 10.3125 -2.703125 Z M 10.765625 -1.359375 "/></g></g></g><g fill="#0b3266" fill-opacity="1"><g transform="translate(170.857458, 22.302387)"><g><path d="M 7.5 -1.1875 L 9.0625 -0.96875 L 9.046875 0 L 3.28125 0 L 3.171875 -0.609375 C 3.566406 -0.847656 4.078125 -1.097656 4.703125 -1.359375 L 4.703125 -4.671875 L 1.15625 -11.296875 L -0.03125 -11.46875 L -0.015625 -12.4375 L 5.03125 -12.4375 L 5.140625 -11.828125 L 4.078125 -11.28125 L 5.859375 -7.9375 L 6.359375 -6.328125 L 6.484375 -6.328125 L 8.953125 -11.265625 L 7.5625 -11.46875 L 7.578125 -12.4375 L 12.1875 -12.4375 L 12.296875 -11.828125 C 11.972656 -11.617188 11.476562 -11.375 10.8125 -11.09375 L 7.5 -4.96875 Z M 7.5 -1.1875 "/></g></g></g><g fill="#0b3266" fill-opacity="1"><g transform="translate(186.647794, 22.302387)"><g/></g></g><g fill="#0b3266" fill-opacity="1"><g transform="translate(195.223229, 22.302387)"><g><path d="M 14.671875 -0.96875 L 14.65625 0 L 8.5625 0 L 8.4375 -0.609375 C 8.800781 -0.847656 9.335938 -1.101562 10.046875 -1.375 L 10.046875 -5.359375 L 4.96875 -5.359375 L 4.96875 -1.203125 L 6.703125 -0.96875 L 6.6875 0 L 0.609375 0 L 0.484375 -0.609375 C 0.847656 -0.847656 1.382812 -1.101562 2.09375 -1.375 L 2.09375 -11.265625 L 0.640625 -11.46875 L 0.65625 -12.4375 L 6.4375 -12.4375 L 6.5625 -11.828125 C 6.09375 -11.546875 5.5625 -11.285156 4.96875 -11.046875 L 4.96875 -6.984375 L 10.046875 -6.984375 L 10.046875 -11.265625 L 8.59375 -11.46875 L 8.609375 -12.4375 L 14.40625 -12.4375 L 14.53125 -11.828125 C 14.125 -11.578125 13.585938 -11.316406 12.921875 -11.046875 L 12.921875 -1.203125 Z M 14.671875 -0.96875 "/></g></g></g><g fill="#0b3266" fill-opacity="1"><g transform="translate(213.959979, 22.302387)"><g><path d="M 13.75 -11.828125 C 13.28125 -11.546875 12.753906 -11.285156 12.171875 -11.046875 L 12.171875 -5.40625 C 12.148438 -3.382812 11.703125 -1.914062 10.828125 -1 C 9.953125 -0.09375 8.757812 0.359375 7.25 0.359375 C 5.53125 0.359375 4.164062 -0.148438 3.15625 -1.171875 C 2.144531 -2.203125 1.628906 -3.617188 1.609375 -5.421875 L 1.609375 -11.265625 L 0.15625 -11.46875 L 0.171875 -12.4375 L 5.953125 -12.4375 L 6.0625 -11.828125 C 5.59375 -11.546875 5.066406 -11.285156 4.484375 -11.046875 L 4.484375 -5 C 4.484375 -3.8125 4.753906 -2.90625 5.296875 -2.28125 C 5.835938 -1.664062 6.578125 -1.359375 7.515625 -1.359375 C 8.128906 -1.359375 8.675781 -1.507812 9.15625 -1.8125 C 9.78125 -2.394531 10.101562 -3.53125 10.125 -5.21875 L 10.125 -11.234375 L 8.515625 -11.46875 L 8.53125 -12.4375 L 13.640625 -12.4375 Z M 13.75 -11.828125 "/></g></g></g><g fill="#0b3266" fill-opacity="1"><g transform="translate(231.450182, 22.302387)"><g><path d="M 9.03125 -6.59375 C 9.988281 -6.414062 10.726562 -6.035156 11.25 -5.453125 C 11.769531 -4.878906 12.03125 -4.207031 12.03125 -3.4375 C 12.03125 -2.414062 11.59375 -1.597656 10.71875 -0.984375 C 9.84375 -0.367188 8.648438 -0.0390625 7.140625 0 L 0.609375 0 L 0.484375 -0.609375 C 0.847656 -0.847656 1.382812 -1.101562 2.09375 -1.375 L 2.09375 -11.296875 L 0.75 -11.46875 L 0.78125 -12.4375 C 2.613281 -12.53125 4.578125 -12.578125 6.671875 -12.578125 C 8.109375 -12.578125 9.257812 -12.28125 10.125 -11.6875 C 10.988281 -11.101562 11.421875 -10.335938 11.421875 -9.390625 C 11.421875 -8.753906 11.21875 -8.164062 10.8125 -7.625 C 10.40625 -7.082031 9.8125 -6.738281 9.03125 -6.59375 Z M 4.96875 -10.828125 L 4.96875 -7.109375 L 5.84375 -7.109375 C 6.726562 -7.109375 7.394531 -7.296875 7.84375 -7.671875 C 8.289062 -8.054688 8.515625 -8.53125 8.515625 -9.09375 C 8.515625 -9.539062 8.375 -9.960938 8.09375 -10.359375 C 7.8125 -10.753906 7.457031 -11.003906 7.03125 -11.109375 Z M 6.484375 -1.453125 L 6.796875 -1.4375 C 7.503906 -1.4375 8.046875 -1.632812 8.421875 -2.03125 C 8.796875 -2.4375 8.984375 -2.914062 8.984375 -3.46875 C 8.984375 -4.113281 8.753906 -4.671875 8.296875 -5.140625 C 7.835938 -5.609375 7.265625 -5.847656 6.578125 -5.859375 L 4.96875 -5.859375 L 4.96875 -1.609375 Z M 6.484375 -1.453125 "/></g></g></g></g></g></svg>